<?xml version="1.0" encoding="UTF-8" standalone="no"?>
<!DOCTYPE svg PUBLIC "-//W3C//DTD SVG 1.1//EN" "http://www.w3.org/Graphics/SVG/1.1/DTD/svg11.dtd">
<svg xmlns="http://www.w3.org/2000/svg" version="1.1" viewBox="0.00 0.00 200.00 200.00" width="200.00" height="200.00">
<path fill="#6bacd5" d="
  M 112.03 14.01
  C 107.34 19.45 101.62 23.57 94.87 26.37
  C 86.43 30.18 76.02 31.58 69.16 34.84
  C 50.36 43.78 38.36 58.33 33.17 78.48
  C 33.09 78.80 32.92 79.06 32.65 79.25
  L 31.36 80.18
  C 24.12 86.25 18.46 94.08 14.39 103.67
  C 13.14 96.97 15.15 87.00 16.01 82.34
  C 19.48 63.46 28.32 47.61 42.52 34.78
  C 62.05 17.15 85.22 10.23 112.03 14.01
  Z"
/>
<path fill="#2b6bae" d="
  M 112.03 14.01
  C 125.26 16.16 137.48 21.06 148.69 28.73
  C 147.96 29.18 148.40 29.98 150.03 31.15
  C 150.10 31.20 150.13 31.30 150.09 31.38
  C 150.06 31.46 149.97 31.50 149.88 31.48
  C 149.74 31.44 149.63 31.42 149.54 31.43
  C 149.31 31.44 149.11 31.52 148.92 31.66
  C 144.59 34.80 144.83 38.59 144.00 43.32
  C 143.80 44.51 142.44 45.11 141.42 44.46
  C 140.63 43.95 139.63 43.66 138.43 43.58
  C 133.38 40.19 128.01 37.59 122.33 35.76
  C 112.19 32.44 102.06 32.27 91.94 35.26
  C 91.77 35.06 91.56 34.91 91.32 34.81
  C 91.17 34.74 91.03 34.75 90.88 34.83
  L 90.30 35.15
  C 90.21 35.20 90.14 35.16 90.16 35.05
  C 90.17 34.94 90.26 34.82 90.35 34.76
  C 92.18 33.67 93.07 31.98 93.01 29.69
  C 93.00 29.45 92.94 29.23 92.81 29.03
  C 92.64 28.74 92.64 28.39 92.81 27.98
  C 92.92 27.71 93.16 27.52 93.45 27.47
  C 94.33 27.32 94.80 26.96 94.87 26.37
  C 101.62 23.57 107.34 19.45 112.03 14.01
  Z"
/>
<path fill="#337bb9" d="
  M 94.87 26.37
  C 94.80 26.96 94.33 27.32 93.45 27.47
  C 93.16 27.52 92.92 27.71 92.81 27.98
  C 92.64 28.39 92.64 28.74 92.81 29.03
  C 92.94 29.23 93.00 29.45 93.01 29.69
  C 93.07 31.98 92.18 33.67 90.35 34.76
  C 90.26 34.82 90.17 34.94 90.16 35.05
  C 90.14 35.16 90.21 35.20 90.30 35.15
  L 90.88 34.83
  C 91.03 34.75 91.17 34.74 91.32 34.81
  C 91.56 34.91 91.77 35.06 91.94 35.26
  C 70.87 43.80 59.39 65.43 58.44 87.57
  C 57.56 109.64 65.44 127.74 82.08 141.85
  L 89.32 147.21
  C 100.33 154.57 112.49 157.77 125.81 156.82
  C 100.12 167.68 72.09 161.93 52.19 142.44
  C 43.63 134.07 37.73 124.28 34.48 113.07
  C 31.57 102.60 30.96 92.08 32.64 81.52
  C 32.69 81.19 32.61 80.90 32.40 80.65
  C 32.15 80.37 31.81 80.21 31.36 80.18
  L 32.65 79.25
  C 32.92 79.06 33.09 78.80 33.17 78.48
  C 38.36 58.33 50.36 43.78 69.16 34.84
  C 76.02 31.58 86.43 30.18 94.87 26.37
  Z"
/>
<path fill="#2662a4" d="
  M 148.69 28.73
  C 153.27 31.88 157.61 35.54 161.71 39.71
  C 160.01 40.35 158.50 41.16 157.18 42.13
  C 154.41 44.18 153.62 47.73 152.38 50.93
  C 151.82 52.36 150.90 52.65 149.63 51.78
  C 149.38 51.61 148.72 51.40 147.63 51.15
  L 138.43 43.58
  C 139.63 43.66 140.63 43.95 141.42 44.46
  C 142.44 45.11 143.80 44.51 144.00 43.32
  C 144.83 38.59 144.59 34.80 148.92 31.66
  C 149.11 31.52 149.31 31.44 149.54 31.43
  C 149.63 31.42 149.74 31.44 149.88 31.48
  C 149.97 31.50 150.06 31.46 150.09 31.38
  C 150.13 31.30 150.10 31.20 150.03 31.15
  C 148.40 29.98 147.96 29.18 148.69 28.73
  Z"
/>
<path fill="#e7802c" d="
  M 122.33 35.76
  L 120.61 36.07
  C 120.12 36.16 120.09 36.32 120.53 36.56
  C 121.15 36.89 121.83 37.12 122.57 37.27
  C 122.80 37.31 122.94 37.44 122.99 37.67
  C 123.32 39.08 122.83 40.13 121.54 40.83
  C 121.27 40.97 121.08 41.22 121.02 41.52
  C 120.23 44.98 115.55 43.56 116.79 47.48
  C 116.89 47.79 116.78 48.13 116.53 48.34
  C 113.58 50.76 112.11 53.86 112.14 57.63
  C 112.15 59.59 113.53 61.05 111.62 63.11
  C 111.62 64.30 111.42 64.99 111.03 65.20
  C 91.28 59.77 71.27 69.86 64.97 89.53
  C 64.87 89.48 64.79 89.36 64.74 89.18
  C 64.51 88.47 64.42 88.49 64.49 89.25
  C 64.50 89.34 64.50 89.43 64.50 89.52
  C 64.51 89.59 64.48 89.60 64.43 89.57
  L 60.80 87.11
  C 60.49 86.90 60.27 86.97 60.14 87.31
  C 60.07 87.46 60.05 87.63 60.07 87.82
  C 60.11 88.17 60.02 88.21 59.80 87.93
  C 59.73 87.84 59.67 87.73 59.63 87.60
  C 59.56 87.41 59.43 87.33 59.24 87.38
  L 58.44 87.57
  C 59.39 65.43 70.87 43.80 91.94 35.26
  C 102.06 32.27 112.19 32.44 122.33 35.76
  Z"
/>
<path fill="#df6b12" d="
  M 122.33 35.76
  C 128.01 37.59 133.38 40.19 138.43 43.58
  L 147.63 51.15
  C 157.24 60.90 162.99 72.52 164.86 86.01
  C 165.11 87.81 164.95 89.58 164.38 91.33
  C 155.43 118.80 132.07 138.81 103.27 142.51
  C 96.32 142.99 89.26 142.77 82.08 141.85
  C 65.44 127.74 57.56 109.64 58.44 87.57
  L 59.24 87.38
  C 59.43 87.33 59.56 87.41 59.63 87.60
  C 59.67 87.73 59.73 87.84 59.80 87.93
  C 60.02 88.21 60.11 88.17 60.07 87.82
  C 60.05 87.63 60.07 87.46 60.14 87.31
  C 60.27 86.97 60.49 86.90 60.80 87.11
  L 64.43 89.57
  C 64.48 89.60 64.51 89.59 64.50 89.52
  C 64.50 89.43 64.50 89.34 64.49 89.25
  C 64.42 88.49 64.51 88.47 64.74 89.18
  C 64.79 89.36 64.87 89.48 64.97 89.53
  C 60.56 106.84 65.33 120.24 79.30 129.71
  C 88.41 135.89 100.52 137.51 111.18 134.33
  C 124.54 130.34 132.93 121.00 136.34 106.29
  C 139.32 106.67 139.81 102.91 138.22 101.55
  C 138.10 101.45 137.92 101.45 137.81 101.56
  L 137.57 101.81
  C 137.40 101.97 137.22 102.00 137.01 101.89
  L 136.70 101.73
  L 136.63 98.02
  L 136.86 94.65
  C 136.89 94.29 137.35 94.15 137.56 94.44
  L 137.80 94.77
  C 137.97 95.00 138.09 94.98 138.18 94.71
  C 138.46 93.81 138.52 93.02 138.36 92.33
  C 137.27 84.80 133.81 78.55 127.98 73.58
  C 126.49 71.30 123.98 69.17 120.45 67.18
  L 111.62 63.11
  C 113.53 61.05 112.15 59.59 112.14 57.63
  C 112.11 53.86 113.58 50.76 116.53 48.34
  C 116.78 48.13 116.89 47.79 116.79 47.48
  C 115.55 43.56 120.23 44.98 121.02 41.52
  C 121.08 41.22 121.27 40.97 121.54 40.83
  C 122.83 40.13 123.32 39.08 122.99 37.67
  C 122.94 37.44 122.80 37.31 122.57 37.27
  C 121.83 37.12 121.15 36.89 120.53 36.56
  C 120.09 36.32 120.12 36.16 120.61 36.07
  L 122.33 35.76
  Z"
/>
<path fill="#1b4783" d="
  M 161.71 39.71
  C 189.89 67.69 194.81 112.46 173.36 145.58
  C 143.27 192.02 81.11 201.45 40.49 162.02
  C 40.50 161.16 40.81 160.70 41.41 160.63
  C 41.74 160.60 41.92 160.42 41.95 160.09
  L 42.08 158.86
  C 42.09 158.69 42.18 158.65 42.33 158.73
  L 43.92 159.56
  C 44.33 159.77 44.83 159.57 44.98 159.14
  C 47.57 151.94 49.35 146.81 50.32 143.76
  C 50.48 143.25 51.10 142.81 52.19 142.44
  C 72.09 161.93 100.12 167.68 125.81 156.82
  C 148.50 148.27 165.42 127.39 165.91 102.59
  C 165.92 102.28 165.51 102.17 165.36 102.44
  C 151.92 127.06 132.47 141.30 105.45 146.46
  C 105.13 145.44 105.11 144.52 105.38 143.71
  C 105.49 143.37 105.37 143.22 105.01 143.26
  C 104.11 143.36 103.53 143.11 103.27 142.51
  C 132.07 138.81 155.43 118.80 164.38 91.33
  C 164.95 89.58 165.11 87.81 164.86 86.01
  C 162.99 72.52 157.24 60.90 147.63 51.15
  C 148.72 51.40 149.38 51.61 149.63 51.78
  C 150.90 52.65 151.82 52.36 152.38 50.93
  C 153.62 47.73 154.41 44.18 157.18 42.13
  C 158.50 41.16 160.01 40.35 161.71 39.71
  Z"
/>
<path fill="#b45610" fill-opacity="0.808" d="
  M 111.62 63.11
  L 120.45 67.18
  C 119.95 67.03 119.34 67.50 118.62 68.60
  L 111.03 65.20
  C 111.42 64.99 111.62 64.30 111.62 63.11
  Z"
/>
<path fill="#733b0f" fill-opacity="0.545" d="
  M 120.45 67.18
  C 123.98 69.17 126.49 71.30 127.98 73.58
  C 129.67 76.73 131.53 79.68 133.56 82.43
  C 135.46 85.02 136.09 87.95 137.26 90.88
  C 137.05 90.92 136.88 90.96 136.74 90.99
  C 136.45 91.05 136.28 91.23 136.25 91.52
  L 136.20 91.94
  C 133.53 82.01 127.67 74.23 118.62 68.60
  C 119.34 67.50 119.95 67.03 120.45 67.18
  Z"
/>
<path fill="#2b6bae" d="
  M 31.36 80.18
  C 31.81 80.21 32.15 80.37 32.40 80.65
  C 32.61 80.90 32.69 81.19 32.64 81.52
  C 30.96 92.08 31.57 102.60 34.48 113.07
  L 33.92 112.60
  C 33.69 112.41 33.52 112.45 33.41 112.73
  L 32.15 115.86
  C 32.02 116.19 31.80 116.44 31.51 116.63
  C 30.62 117.20 30.30 118.04 30.54 119.16
  C 30.61 119.49 30.48 119.70 30.16 119.80
  C 24.91 121.42 27.01 128.46 25.77 132.53
  C 25.66 132.90 25.41 133.12 25.03 133.20
  C 24.28 133.35 23.82 133.86 23.64 134.72
  C 23.59 134.99 23.45 135.22 23.24 135.40
  C 22.87 135.71 22.45 135.94 22.00 136.07
  C 17.03 125.38 14.49 114.58 14.39 103.67
  C 18.46 94.08 24.12 86.25 31.36 80.18
  Z"
/>
<path fill="#b45610" fill-opacity="0.808" d="
  M 137.26 90.88
  L 137.67 93.06
  C 137.70 93.21 137.83 93.32 137.98 93.31
  C 138.13 93.31 138.26 93.19 138.28 93.04
  L 138.36 92.33
  C 138.52 93.02 138.46 93.81 138.18 94.71
  C 138.09 94.98 137.97 95.00 137.80 94.77
  L 137.56 94.44
  C 137.35 94.15 136.89 94.29 136.86 94.65
  L 136.63 98.02
  L 136.20 91.94
  L 136.25 91.52
  C 136.28 91.23 136.45 91.05 136.74 90.99
  C 136.88 90.96 137.05 90.92 137.26 90.88
  Z"
/>
<path fill="#b45610" fill-opacity="0.808" d="
  M 136.34 106.29
  L 136.70 101.73
  L 137.01 101.89
  C 137.22 102.00 137.40 101.97 137.57 101.81
  L 137.81 101.56
  C 137.92 101.45 138.10 101.45 138.22 101.55
  C 139.81 102.91 139.32 106.67 136.34 106.29
  Z"
/>
<path fill="#df6b12" d="
  M 125.81 156.82
  C 112.49 157.77 100.33 154.57 89.32 147.21
  L 105.45 146.46
  C 132.47 141.30 151.92 127.06 165.36 102.44
  C 165.51 102.17 165.92 102.28 165.91 102.59
  C 165.42 127.39 148.50 148.27 125.81 156.82
  Z"
/>
<path fill="#2662a4" d="
  M 34.48 113.07
  C 37.73 124.28 43.63 134.07 52.19 142.44
  C 51.10 142.81 50.48 143.25 50.32 143.76
  C 49.35 146.81 47.57 151.94 44.98 159.14
  C 44.83 159.57 44.33 159.77 43.92 159.56
  L 42.33 158.73
  C 42.18 158.65 42.09 158.69 42.08 158.86
  L 41.95 160.09
  C 41.92 160.42 41.74 160.60 41.41 160.63
  C 40.81 160.70 40.50 161.16 40.49 162.02
  C 32.59 154.49 26.43 145.84 22.00 136.07
  C 22.45 135.94 22.87 135.71 23.24 135.40
  C 23.45 135.22 23.59 134.99 23.64 134.72
  C 23.82 133.86 24.28 133.35 25.03 133.20
  C 25.41 133.12 25.66 132.90 25.77 132.53
  C 27.01 128.46 24.91 121.42 30.16 119.80
  C 30.48 119.70 30.61 119.49 30.54 119.16
  C 30.30 118.04 30.62 117.20 31.51 116.63
  C 31.80 116.44 32.02 116.19 32.15 115.86
  L 33.41 112.73
  C 33.52 112.45 33.69 112.41 33.92 112.60
  L 34.48 113.07
  Z"
/>
<path fill="#2662a4" d="
  M 82.08 141.85
  C 89.26 142.77 96.32 142.99 103.27 142.51
  C 103.53 143.11 104.11 143.36 105.01 143.26
  C 105.37 143.22 105.49 143.37 105.38 143.71
  C 105.11 144.52 105.13 145.44 105.45 146.46
  L 89.32 147.21
  L 82.08 141.85
  Z"
/>
</svg>
